solid Lufteinlass
facet normal -0.0040769663400911545 0.010406943760206578 -0.9999375349825778
  outer loop
    vertex -22.25193561463292 15.37167042129766 0.22834301001865887
    vertex -19.282259821980702 14.85081009936881 0.21032558579671912
    vertex -21.308429689874746 3.110943032899719 0.09634982580804524
  endloop
endfacet
facet normal -0.0040769663400911545 0.010406943760206578 -0.9999375349825778
  outer loop
    vertex -18.887710503657893 2.7575274843359927 0.08340011167702172
    vertex -21.308429689874746 3.110943032899719 0.09634982580804524
    vertex -19.282259821980702 14.85081009936881 0.21032558579671912
  endloop
endfacet
facet normal -0.0051159723808271735 0.009616747321204676 -0.9999406707387989
  outer loop
    vertex -19.282259821980702 14.85081009936881 0.21032558579671912
    vertex -9.27726280778482 13.333440962760603 0.13681789356293733
    vertex -18.887710503657893 2.7575274843359927 0.08340011167702172
  endloop
endfacet
facet normal -0.0051159723808271735 0.009616747321204676 -0.9999406707387989
  outer loop
    vertex -10.761194526729518 1.5710878847942868 0.039927056486811094
    vertex -18.887710503657893 2.7575274843359927 0.08340011167702172
    vertex -9.27726280778482 13.333440962760603 0.13681789356293733
  endloop
endfacet
facet normal -0.0046493066965977315 0.008494444565370058 -0.9999531130801919
  outer loop
    vertex -9.27726280778482 13.333440962760603 0.13681789356293733
    vertex 0.44351628765522083 12.023344728761478 0.07703603413088657
    vertex -10.761194526729518 1.5710878847942868 0.039927056486811094
  endloop
endfacet
facet normal -0.0046493066965977315 0.008494444565370058 -0.9999531130801919
  outer loop
    vertex -2.88422403079703 0.42108095103217485 -0.002211047231124752
    vertex -10.761194526729518 1.5710878847942868 0.039927056486811094
    vertex 0.44351628765522083 12.023344728761478 0.07703603413088657
  endloop
endfacet
facet normal -0.005751724413641374 0.008132730852280749 -0.9999503869468495
  outer loop
    vertex 0.44351628765522083 12.023344728761478 0.07703603413088657
    vertex 4.279114034787711 11.494548463130446 0.047216104861792015
    vertex -2.88422403079703 0.42108095103217485 -0.002211047231124752
  endloop
endfacet
facet normal -0.005751724413641374 0.008132730852280749 -0.9999503869468495
  outer loop
    vertex -3.078786706112169e-05 5.639932965095795e-14 -0.01764013054130622
    vertex -2.88422403079703 0.42108095103217485 -0.002211047231124752
    vertex 4.279114034787711 11.494548463130446 0.047216104861792015
  endloop
endfacet
facet normal 0.9360164570955773 -0.34816582381646755 -0.05151457242803904
  outer loop
    vertex -3.078786706112169e-05 5.639932965095795e-14 -0.01764013054130622
    vertex 4.279114034787756 11.494548463130593 0.04721610486143106
    vertex 0.34509072829838167 0.4193149196828139 3.4192183355969044
  endloop
endfacet
facet normal 0.9418460900174279 -0.3360104247348963 -0.004789278479854354
  outer loop
    vertex 4.279114034787756 11.494548463130593 0.04721610486143106
    vertex 4.287578664241523 11.471304488411953 3.3426177063066804
    vertex 0.34509072829838167 0.4193149196828139 3.4192183355969044
  endloop
endfacet
facet normal 0.9408107558954688 -0.3359203823313328 -0.04508456859911006
  outer loop
    vertex 0.34509072829838167 0.4193149196828139 3.4192183355969044
    vertex 4.287578664241523 11.471304488411953 3.3426177063066804
    vertex 0.6955900504105983 0.9416605833748039 6.841386538925909
  endloop
endfacet
facet normal 0.9459555003058998 -0.3242621495852193 -0.004716968029104652
  outer loop
    vertex 4.287578664241523 11.471304488411953 3.3426177063066804
    vertex 4.29604329369538 11.448060513693324 6.638019307751884
    vertex 0.6955900504105983 0.9416605833748039 6.841386538925909
  endloop
endfacet
facet normal 0.9450375969322193 -0.32461343616385163 -0.03911594874822091
  outer loop
    vertex 0.6955900504105983 0.9416605833748039 6.841386538925909
    vertex 4.29604329369538 11.448060513693324 6.638019307751884
    vertex 1.051152776448164 1.5665684408616705 10.24579475424889
  endloop
endfacet
facet normal 0.9495706965706397 -0.3135185246557394 -0.0046504743885681585
  outer loop
    vertex 4.29604329369538 11.448060513693324 6.638019307751884
    vertex 4.304507923149193 11.424816538974683 9.933420909197043
    vertex 1.051152776448164 1.5665684408616705 10.24579475424889
  endloop
endfacet
facet normal 0.9487738974671782 -0.31417089044624863 -0.033537189523748755
  outer loop
    vertex 1.051152776448164 1.5665684408616705 10.24579475424889
    vertex 4.304507923149193 11.424816538974683 9.933420909197043
    vertex 1.4114599624567061 2.2934779424329235 13.62938918728761
  endloop
endfacet
facet normal 0.9527520338408885 -0.3037145017264786 -0.004589493772455564
  outer loop
    vertex 4.304507923149193 11.424816538974683 9.933420909197043
    vertex 4.312972552602914 11.401572564256076 13.228822510642248
    vertex 1.4114599624567061 2.2934779424329235 13.62938918728761
  endloop
endfacet
facet normal 0.9537040676160237 -0.30024509685191464 -0.017361832536781217
  outer loop
    vertex 4.312972552602914 11.401572564256076 13.228822510642248
    vertex 4.321437182056681 11.378328589537448 16.5242241120875
    vertex 1.4114599624567061 2.2934779424329235 13.62938918728761
  endloop
endfacet
facet normal 0.9537040676160237 -0.30024509685191464 -0.017361832536781217
  outer loop
    vertex 1.7761884086455124 3.121737041701531 16.989134713971875
    vertex 1.4114599624567061 2.2934779424329235 13.62938918728761
    vertex 4.321437182056681 11.378328589537448 16.5242241120875
  endloop
endfacet
facet normal 0.9560953158057277 -0.2926196125134854 -0.015984663487346472
  outer loop
    vertex 4.321437182056681 11.378328589537448 16.5242241120875
    vertex 4.327625134116553 11.361336398441143 18.933282563952005
    vertex 1.7761884086455124 3.121737041701531 16.989134713971875
  endloop
endfacet
facet normal 0.9560953158057277 -0.2926196125134854 -0.015984663487346472
  outer loop
    vertex 2.0696895161763287 3.8517352091983583 19.64785939630676
    vertex 1.7761884086455124 3.121737041701531 16.989134713971875
    vertex 4.327625134116553 11.361336398441143 18.933282563952005
  endloop
endfacet
facet normal 0.9573844292508044 -0.2884713499516134 -0.014118600681573173
  outer loop
    vertex 4.327625134116553 11.361336398441143 18.933282563952005
    vertex 4.329202758849496 11.357004221869394 19.547474490466605
    vertex 2.0696895161763287 3.8517352091983583 19.64785939630676
  endloop
endfacet
facet normal 0.9573844292508044 -0.2884713499516134 -0.014118600681573173
  outer loop
    vertex 2.145010949301292 4.050602780497253 20.322017602981095
    vertex 2.0696895161763287 3.8517352091983583 19.64785939630676
    vertex 4.329202758849496 11.357004221869394 19.547474490466605
  endloop
endfacet
facet normal 0.9589424091667814 -0.28343480726575504 -0.00970391321239248
  outer loop
    vertex 4.329202758849496 11.357004221869394 19.547474490466605
    vertex 4.34565697615538 11.4131455401948 22.97859676935546
    vertex 2.145010949301292 4.050602780497253 20.322017602981095
  endloop
endfacet
facet normal 0.9589424091667814 -0.28343480726575504 -0.00970391321239248
  outer loop
    vertex 2.5175967462597404 5.079241955309002 23.625048219097465
    vertex 2.145010949301292 4.050602780497253 20.322017602981095
    vertex 4.34565697615538 11.4131455401948 22.97859676935546
  endloop
endfacet
facet normal 0.961533392421492 -0.2745739577166718 -0.007916880839100745
  outer loop
    vertex 4.34565697615538 11.4131455401948 22.97859676935546
    vertex 4.3617848380920075 11.468173343344258 26.341665663642182
    vertex 2.5175967462597404 5.079241955309002 23.625048219097465
  endloop
endfacet
facet normal 0.961533392421492 -0.2745739577166718 -0.007916880839100745
  outer loop
    vertex 2.8936115856713234 6.206731864677991 26.895263704943616
    vertex 2.5175967462597404 5.079241955309002 23.625048219097465
    vertex 4.3617848380920075 11.468173343344258 26.341665663642182
  endloop
endfacet
facet normal 0.9638487667670455 -0.26637998154192494 -0.006104116264421209
  outer loop
    vertex 4.3617848380920075 11.468173343344258 26.341665663642182
    vertex 4.377749522343849 11.522644388905755 29.670707865627886
    vertex 2.8936115856713234 6.206731864677991 26.895263704943616
  endloop
endfacet
facet normal 0.9638487667670455 -0.26637998154192494 -0.006104116264421209
  outer loop
    vertex 3.2727181777951166 7.43206113687198 30.129730638700725
    vertex 2.8936115856713234 6.206731864677991 26.895263704943616
    vertex 4.377749522343849 11.522644388905755 29.670707865627886
  endloop
endfacet
facet normal 0.9659188633456607 -0.2588102470475482 -0.00424328365940296
  outer loop
    vertex 4.377749522343849 11.522644388905755 29.670707865627886
    vertex 4.393917235805463 11.577808164317492 33.04208681518782
    vertex 3.2727181777951166 7.43206113687198 30.129730638700725
  endloop
endfacet
facet normal 0.9659188633456607 -0.2588102470475482 -0.00424328365940296
  outer loop
    vertex 3.6545764595515196 8.754130637097575 33.325547665422114
    vertex 3.2727181777951166 7.43206113687198 30.129730638700725
    vertex 4.393917235805463 11.577808164317492 33.04208681518782
  endloop
endfacet
facet normal 0.967716393743022 -0.25202953694523345 -0.002468559938850376
  outer loop
    vertex 4.393917235805463 11.577808164317492 33.04208681518782
    vertex 4.410084949267033 11.632971939729227 36.41346576474771
    vertex 3.6545764595515196 8.754130637097575 33.325547665422114
  endloop
endfacet
facet normal 0.967716393743022 -0.25202953694523345 -0.002468559938850376
  outer loop
    vertex 4.038843899562861 10.17175445343708 36.47984809958322
    vertex 3.6545764595515196 8.754130637097575 33.325547665422114
    vertex 4.410084949267033 11.632971939729227 36.41346576474771
  endloop
endfacet
facet normal 0.9692013604716119 -0.24626869002917035 -0.00067466383725686
  outer loop
    vertex 4.038843899562861 10.17175445343708 36.47984809958322
    vertex 4.410084949267033 11.632971939729227 36.41346576474771
    vertex 4.425175805408323 11.683660960625499 39.58980249653206
  endloop
endfacet
facet normal 0.9972812958818861 0.07352916278479506 0.004845524152571971
  outer loop
    vertex -22.25193561463292 15.37167042129766 0.22834301001865887
    vertex -22.224582522743642 15.334100064465337 3.520764475780523
    vertex -21.308429689874703 3.1109430328997303 0.09634982580800013
  endloop
endfacet
facet normal 0.9972812958818861 0.07352916278479506 0.004845524152571971
  outer loop
    vertex -21.398950959541274 3.5850809124622236 3.5395500690778805
    vertex -21.308429689874703 3.1109430328997303 0.09634982580800013
    vertex -22.224582522743642 15.334100064465337 3.520764475780523
  endloop
endfacet
facet normal 0.9977276549707811 0.06731009074594421 0.002979629218357616
  outer loop
    vertex -22.224582522743642 15.334100064465337 3.520764475780523
    vertex -22.197229430853998 15.296529707633026 6.813185941542072
    vertex -21.398950959541274 3.5850809124622236 3.5395500690778805
  endloop
endfacet
facet normal 0.9977276549707811 0.06731009074594421 0.002979629218357616
  outer loop
    vertex -21.481310993553926 4.16143235446276 6.967328443543363
    vertex -21.398950959541274 3.5850809124622236 3.5395500690778805
    vertex -22.197229430853998 15.296529707633026 6.813185941542072
  endloop
endfacet
facet normal 0.9980931841229554 0.06171283793458546 0.0012334672106053199
  outer loop
    vertex -22.197229430853998 15.296529707633026 6.813185941542072
    vertex -22.16987633896467 15.258959350800724 10.105607407303845
    vertex -21.481310993553926 4.16143235446276 6.967328443543363
  endloop
endfacet
facet normal 0.9980931841229554 0.06171283793458546 0.0012334672106053199
  outer loop
    vertex -21.555436537997927 4.839484731630448 10.37663616239624
    vertex -21.481310993553926 4.16143235446276 6.967328443543363
    vertex -22.16987633896467 15.258959350800724 10.105607407303845
  endloop
endfacet
facet normal 0.9983905664665197 0.056710677930085884 -0.0004192843571666216
  outer loop
    vertex -22.16987633896467 15.258959350800724 10.105607407303845
    vertex -22.14252324707521 15.22138899396839 13.398028873065485
    vertex -21.555436537997927 4.839484731630448 10.37663616239624
  endloop
endfacet
facet normal 0.9983905664665197 0.056710677930085884 -0.0004192843571666216
  outer loop
    vertex -21.621261663003388 5.61863496030089 13.764440867280028
    vertex -21.555436537997927 4.839484731630448 10.37663616239624
    vertex -22.14252324707521 15.22138899396839 13.398028873065485
  endloop
endfacet
facet normal 0.9986269224927099 0.052355696047770336 -0.0017750391806803222
  outer loop
    vertex -22.14252324707521 15.22138899396839 13.398028873065485
    vertex -22.116299819154616 15.18537026715222 16.55447558631665
    vertex -21.621261663003388 5.61863496030089 13.764440867280028
  endloop
endfacet
facet normal 0.9986269224927099 0.052355696047770336 -0.0017750391806803222
  outer loop
    vertex -21.67872782138585 6.4981900368200884 17.12772932537612
    vertex -21.621261663003388 5.61863496030089 13.764440867280028
    vertex -22.116299819154616 15.18537026715222 16.55447558631665
  endloop
endfacet
facet normal 0.998809781748306 0.04865696195360397 -0.003394103320023637
  outer loop
    vertex -22.116299819154616 15.18537026715222 16.55447558631665
    vertex -22.090076391233882 15.149351540336026 19.710922299567905
    vertex -21.67872782138585 6.4981900368200884 17.12772932537612
  endloop
endfacet
facet normal 0.998809781748306 0.04865696195360397 -0.003394103320023637
  outer loop
    vertex -21.727783900720084 7.477367653926132 20.46351010947904
    vertex -21.67872782138585 6.4981900368200884 17.12772932537612
    vertex -22.090076391233882 15.149351540336026 19.710922299567905
  endloop
endfacet
facet normal 0.9989903381651838 0.044283569630292896 -0.007567675561951903
  outer loop
    vertex -22.090076391233882 15.149351540336026 19.710922299567905
    vertex -22.048125067996686 15.188996087177943 23.13917416066022
    vertex -21.727783900720084 7.477367653926132 20.46351010947904
  endloop
endfacet
facet normal 0.9989903381651838 0.044283569630292896 -0.007567675561951903
  outer loop
    vertex -21.768386268801585 8.555296896561076 23.768816258677674
    vertex -21.727783900720084 7.477367653926132 20.46351010947904
    vertex -22.048125067996686 15.188996087177943 23.13917416066022
  endloop
endfacet
facet normal 0.9991853424534984 0.039436919935508345 -0.008566257764351161
  outer loop
    vertex -22.048125067996686 15.188996087177943 23.13917416066022
    vertex -22.007005667389166 15.227854456299728 26.499441508196245
    vertex -21.768386268801585 8.555296896561076 23.768816258677674
  endloop
endfacet
facet normal 0.9991853424534984 0.039436919935508345 -0.008566257764351161
  outer loop
    vertex -21.800498812454073 9.731019016493175 27.040707917274332
    vertex -21.768386268801585 8.555296896561076 23.768816258677674
    vertex -22.007005667389166 15.227854456299728 26.499441508196245
  endloop
endfacet
facet normal 0.9993416264114051 0.034993168104990695 -0.009580809328228508
  outer loop
    vertex -22.007005667389166 15.227854456299728 26.499441508196245
    vertex -21.966302228096396 15.266319736561448 29.825716598954056
    vertex -21.800498812454073 9.731019016493175 27.040707917274332
  endloop
endfacet
facet normal 0.9993416264114051 0.034993168104990695 -0.009580809328228508
  outer loop
    vertex -21.82409296965042 11.003488285061628 30.276274949596026
    vertex -21.800498812454073 9.731019016493175 27.040707917274332
    vertex -21.966302228096396 15.266319736561448 29.825716598954056
  endloop
endfacet
facet normal 0.9994643978888093 0.030950778632830613 -0.010628577269874638
  outer loop
    vertex -21.966302228096396 15.266319736561448 29.825716598954056
    vertex -21.925081059832337 15.30527427744407 33.194300374457825
    vertex -21.82409296965042 11.003488285061628 30.276274949596026
  endloop
endfacet
facet normal 0.9994643978888093 0.030950778632830613 -0.010628577269874638
  outer loop
    vertex -21.839147754916194 12.371572923284177 33.47263952837169
    vertex -21.82409296965042 11.003488285061628 30.276274949596026
    vertex -21.925081059832337 15.30527427744407 33.194300374457825
  endloop
endfacet
facet normal 0.9995545923383047 0.02747175884120917 -0.011658447648649092
  outer loop
    vertex -21.925081059832337 15.30527427744407 33.194300374457825
    vertex -21.883859891568232 15.344228818326718 36.5628841499616
    vertex -21.839147754916194 12.371572923284177 33.47263952837169
  endloop
endfacet
facet normal 0.9995545923383047 0.02747175884120917 -0.011658447648649092
  outer loop
    vertex -21.845649777995106 13.834056108501438 36.626958694373165
    vertex -21.839147754916194 12.371572923284177 33.47263952837169
    vertex -21.883859891568232 15.344228818326718 36.5628841499616
  endloop
endfacet
facet normal 0.9996089353638226 0.024738770341118557 -0.013037238312416443
  outer loop
    vertex -21.845649777995106 13.834056108501438 36.626958694373165
    vertex -21.883859891568232 15.344228818326718 36.5628841499616
    vertex -21.843593255758858 15.389637056661732 39.73642688504324
  endloop
endfacet
facet normal 0.14064597657112915 0.9811862331533038 -0.13225840292693633
  outer loop
    vertex 0.34509072829838167 0.41931491968280266 3.4192183355969497
    vertex -3.078786706112169e-05 5.639932965095795e-14 -0.01764013054130622
    vertex -2.599335358199191 0.8378842329394952 3.4338144384559572
  endloop
endfacet
facet normal 0.14064597657112915 0.9811862331533038 -0.13225840292693633
  outer loop
    vertex -2.88422403079703 0.42108095103217485 -0.002211047231124752
    vertex -2.599335358199191 0.8378842329394952 3.4338144384559572
    vertex -3.078786706112169e-05 5.639932965095795e-14 -0.01764013054130622
  endloop
endfacet
facet normal 0.14209314423480623 0.981315753550255 -0.12972636661666714
  outer loop
    vertex -2.599335358199191 0.8378842329394952 3.4338144384559572
    vertex -2.88422403079703 0.42108095103217485 -0.002211047231124752
    vertex -10.638065391072653 2.0040273733518537 3.4786790835174073
  endloop
endfacet
facet normal 0.14209314423480623 0.981315753550255 -0.12972636661666714
  outer loop
    vertex -10.761194526729518 1.5710878847942868 0.039927056486811094
    vertex -10.638065391072653 2.0040273733518537 3.4786790835174073
    vertex -2.88422403079703 0.42108095103217485 -0.002211047231124752
  endloop
endfacet
facet normal 0.14279076784186504 0.9812883837760042 -0.1291661894049989
  outer loop
    vertex -10.638065391072653 2.0040273733518537 3.4786790835174073
    vertex -10.761194526729518 1.5710878847942868 0.039927056486811094
    vertex -18.929776353426227 3.218548880160273 3.5257814518488573
  endloop
endfacet
facet normal 0.14279076784186504 0.9812883837760042 -0.1291661894049989
  outer loop
    vertex -18.887710503657893 2.7575274843359927 0.08340011167702172
    vertex -18.929776353426227 3.218548880160273 3.5257814518488573
    vertex -10.761194526729518 1.5710878847942868 0.039927056486811094
  endloop
endfacet
facet normal 0.14373032720919704 0.980979576302004 -0.13046326654916335
  outer loop
    vertex -18.887710503657893 2.7575274843359927 0.08340011167702172
    vertex -21.308429689874746 3.110943032899719 0.09634982580804524
    vertex -18.929776353426227 3.218548880160273 3.5257814518488573
  endloop
endfacet
facet normal 0.14373032720919704 0.980979576302004 -0.13046326654916335
  outer loop
    vertex -21.398950743881926 3.5850797828852823 3.5395418659912465
    vertex -18.929776353426227 3.218548880160273 3.5257814518488573
    vertex -21.308429689874746 3.110943032899719 0.09634982580804524
  endloop
endfacet
facet normal 0.1362667572327316 0.9774122075458379 -0.16154487739834977
  outer loop
    vertex 0.6955900504105983 0.9416605833748039 6.841386538925909
    vertex 0.34509072829838167 0.41931491968280266 3.4192183355969497
    vertex -2.3087348354758395 1.3572123562459002 6.854983454927394
  endloop
endfacet
facet normal 0.1362667572327316 0.9774122075458379 -0.16154487739834977
  outer loop
    vertex -2.599335358199191 0.8378842329394952 3.4338144384559572
    vertex -2.3087348354758395 1.3572123562459002 6.854983454927394
    vertex 0.34509072829838167 0.41931491968280266 3.4192183355969497
  endloop
endfacet
facet normal 0.1403925121463882 0.9772215679515193 -0.15914757196891416
  outer loop
    vertex -2.3087348354758395 1.3572123562459002 6.854983454927394
    vertex -2.599335358199191 0.8378842329394952 3.4338144384559572
    vertex -10.508220508893448 2.5390249083924386 6.90231952989415
  endloop
endfacet
facet normal 0.1403925121463882 0.9772215679515193 -0.15914757196891416
  outer loop
    vertex -10.638065391072653 2.0040273733518537 3.4786790835174073
    vertex -10.508220508893448 2.5390249083924386 6.90231952989415
    vertex -2.599335358199191 0.8378842329394952 3.4338144384559572
  endloop
endfacet
facet normal 0.14242035272851217 0.9770191815795836 -0.15858739531957503
  outer loop
    vertex -10.508220508893448 2.5390249083924386 6.90231952989415
    vertex -10.638065391072653 2.0040273733518537 3.4786790835174073
    vertex -18.964032751612535 3.7816019939027776 6.952820464536048
  endloop
endfacet
facet normal 0.14242035272851217 0.9770191815795836 -0.15858739531957503
  outer loop
    vertex -18.929776353426227 3.218548880160273 3.5257814518488573
    vertex -18.964032751612535 3.7816019939027776 6.952820464536048
    vertex -10.638065391072653 2.0040273733518537 3.4786790835174073
  endloop
endfacet
facet normal 0.14525089187070628 0.9764004861908091 -0.15982574566419583
  outer loop
    vertex -18.929776353426227 3.218548880160273 3.5257814518488573
    vertex -21.398950743881926 3.5850797828852823 3.5395418659912465
    vertex -18.964032751612535 3.7816019939027776 6.952820464536048
  endloop
endfacet
facet normal 0.14525089187070628 0.9764004861908091 -0.15982574566419583
  outer loop
    vertex -21.48131060112378 4.16142960826933 6.967312110858151
    vertex -18.964032751612535 3.7816019939027776 6.952820464536048
    vertex -21.398950743881926 3.5850797828852823 3.5395418659912465
  endloop
endfacet
facet normal 0.13182914308467988 0.97275562559091 -0.19070283142836764
  outer loop
    vertex 1.051152776448164 1.5665684408616705 10.24579475424889
    vertex 0.6955900504105983 0.9416605833748039 6.841386538925909
    vertex -2.012683133882134 1.9785951425977453 10.258229877205359
  endloop
endfacet
facet normal 0.13182914308467988 0.97275562559091 -0.19070283142836764
  outer loop
    vertex -2.3087348354758395 1.3572123562459002 6.854983454927394
    vertex -2.012683133882134 1.9785951425977453 10.258229877205359
    vertex 0.6955900504105983 0.9416605833748039 6.841386538925909
  endloop
endfacet
facet normal 0.13856832856841325 0.9722611710809266 -0.18843310093001667
  outer loop
    vertex -2.012683133882134 1.9785951425977453 10.258229877205359
    vertex -2.3087348354758395 1.3572123562459002 6.854983454927394
    vertex -10.371776741675054 3.175595826662467 10.307789833702195
  endloop
endfacet
facet normal 0.13856832856841325 0.9722611710809266 -0.18843310093001667
  outer loop
    vertex -10.508220508893448 2.5390249083924386 6.90231952989415
    vertex -10.371776741675054 3.175595826662467 10.307789833702195
    vertex -2.3087348354758395 1.3572123562459002 6.854983454927394
  endloop
endfacet
facet normal 0.14190618835913982 0.9718880618057896 -0.1878729065745411
  outer loop
    vertex -10.371776741675054 3.175595826662467 10.307789833702195
    vertex -10.508220508893448 2.5390249083924386 6.90231952989415
    vertex -18.99044964154662 4.446182222488969 10.361466036609775
  endloop
endfacet
facet normal 0.14190618835913982 0.9718880618057896 -0.1878729065745411
  outer loop
    vertex -18.964032751612535 3.7816019939027776 6.952820464536048
    vertex -18.99044964154662 4.446182222488969 10.361466036609775
    vertex -10.508220508893448 2.5390249083924386 6.90231952989415
  endloop
endfacet
facet normal 0.14661350237488238 0.9709615292628493 -0.18904546969689495
  outer loop
    vertex -18.964032751612535 3.7816019939027776 6.952820464536048
    vertex -21.48131060112378 4.16142960826933 6.967312110858151
    vertex -18.99044964154662 4.446182222488969 10.361466036609775
  endloop
endfacet
facet normal 0.14661350237488238 0.9709615292628493 -0.18904546969689495
  outer loop
    vertex -21.55543600820726 4.839479885456494 10.376611795384994
    vertex -18.99044964154662 4.446182222488969 10.361466036609775
    vertex -21.48131060112378 4.16142960826933 6.967312110858151
  endloop
endfacet
facet normal 0.12734651812414285 0.9672186145401676 -0.2197066589993496
  outer loop
    vertex 1.4114599624567061 2.2934779424329235 13.62938918728761
    vertex 1.051152776448164 1.5665684408616705 10.24579475424889
    vertex -1.7114457852415024 2.70147132719621 13.640503697695776
  endloop
endfacet
facet normal 0.12734651812414285 0.9672186145401676 -0.2197066589993496
  outer loop
    vertex -2.012683133882134 1.9785951425977453 10.258229877205359
    vertex -1.7114457852415024 2.70147132719621 13.640503697695776
    vertex 1.051152776448164 1.5665684408616705 10.24579475424889
  endloop
endfacet
facet normal 0.13662684922733986 0.96643764441939 -0.217557770533049
  outer loop
    vertex -1.7114457852415024 2.70147132719621 13.640503697695776
    vertex -2.012683133882134 1.9785951425977453 10.258229877205359
    vertex -10.228856797736373 3.913165241684955 13.692047708055954
  endloop
endfacet
facet normal 0.13662684922733986 0.96643764441939 -0.217557770533049
  outer loop
    vertex -10.371776741675054 3.175595826662467 10.307789833702195
    vertex -10.228856797736373 3.913165241684955 13.692047708055954
    vertex -2.012683133882134 1.9785951425977453 10.258229877205359
  endloop
endfacet
facet normal 0.14125103008043785 0.9658986854596132 -0.21699740995829037
  outer loop
    vertex -10.228856797736373 3.913165241684955 13.692047708055954
    vertex -10.371776741675054 3.175595826662467 10.307789833702195
    vertex -19.009003918656447 5.211694819802825 13.748683433953833
  endloop
endfacet
facet normal 0.14125103008043785 0.9658986854596132 -0.21699740995829037
  outer loop
    vertex -18.99044964154662 4.446182222488969 10.361466036609775
    vertex -19.009003918656447 5.211694819802825 13.748683433953833
    vertex -10.371776741675054 3.175595826662467 10.307789833702195
  endloop
endfacet
facet normal 0.1478159832354803 0.9646678518214791 -0.2180971589963086
  outer loop
    vertex -18.99044964154662 4.446182222488969 10.361466036609775
    vertex -21.55543600820726 4.839479885456494 10.376611795384994
    vertex -19.009003918656447 5.211694819802825 13.748683433953833
  endloop
endfacet
facet normal 0.1478159832354803 0.9646678518214791 -0.2180971589963086
  outer loop
    vertex -21.62126103571615 5.618627535309187 13.764408582848361
    vertex -19.009003918656447 5.211694819802825 13.748683433953833
    vertex -21.55543600820726 4.839479885456494 10.376611795384994
  endloop
endfacet
facet normal 0.12283191677889546 0.960804241661748 -0.24853074140881642
  outer loop
    vertex 1.7761884086455124 3.121737041701531 16.989134713971875
    vertex 1.4114599624567061 2.2934779424329235 13.62938918728761
    vertex -1.4052929461717207 3.525189058801933 16.99877375845659
  endloop
endfacet
facet normal 0.12283191677889546 0.960804241661748 -0.24853074140881642
  outer loop
    vertex -1.7114457852415024 2.70147132719621 13.640503697695776
    vertex -1.4052929461717207 3.525189058801933 16.99877375845659
    vertex 1.4114599624567061 2.2934779424329235 13.62938918728761
  endloop
endfacet
facet normal 0.134574070081866 0.9597548300743521 -0.24649642149644385
  outer loop
    vertex -1.4052929461717207 3.525189058801933 16.99877375845659
    vertex -1.7114457852415024 2.70147132719621 13.640503697695776
    vertex -10.079589125453834 4.7510685531582775 17.052069858045712
  endloop
endfacet
facet normal 0.134574070081866 0.9597548300743521 -0.24649642149644385
  outer loop
    vertex -10.228856797736373 3.913165241684955 13.692047708055954
    vertex -10.079589125453834 4.7510685531582775 17.052069858045712
    vertex -1.7114457852415024 2.70147132719621 13.640503697695776
  endloop
endfacet
facet normal 0.14045740705859075 0.9590554550410161 -0.24593566426699298
  outer loop
    vertex -10.079589125453834 4.7510685531582775 17.052069858045712
    vertex -10.228856797736373 3.913165241684955 13.692047708055954
    vertex -19.019679452493566 6.0774554242053425 17.111457003236346
  endloop
endfacet
facet normal 0.14045740705859075 0.9590554550410161 -0.24593566426699298
  outer loop
    vertex -19.009003918656447 5.211694819802825 13.748683433953833
    vertex -19.019679452493566 6.0774554242053425 17.111457003236346
    vertex -10.228856797736373 3.913165241684955 13.692047708055954
  endloop
endfacet
facet normal 0.14885596493111403 0.9575253385382895 -0.24695572024466506
  outer loop
    vertex -19.009003918656447 5.211694819802825 13.748683433953833
    vertex -21.62126103571615 5.618627535309187 13.764408582848361
    vertex -19.019679452493566 6.0774554242053425 17.111457003236346
  endloop
endfacet
facet normal 0.14885596493111403 0.9575253385382895 -0.24695572024466506
  outer loop
    vertex -21.678727136848597 6.498179559558399 17.12768926187371
    vertex -19.019679452493566 6.0774554242053425 17.111457003236346
    vertex -21.62126103571615 5.618627535309187 13.764408582848361
  endloop
endfacet
facet normal 0.11900864323699432 0.9544042433229748 -0.2737690325109645
  outer loop
    vertex 2.0696895161763287 3.8517352091983583 19.64785939630676
    vertex 1.7761884086455124 3.121737041701531 16.989134713971875
    vertex -1.1580011771760799 4.252574139064771 19.65582032580498
  endloop
endfacet
facet normal 0.11900864323699432 0.9544042433229748 -0.2737690325109645
  outer loop
    vertex -1.4052929461717207 3.525189058801933 16.99877375845659
    vertex -1.1580011771760799 4.252574139064771 19.65582032580498
    vertex 1.7761884086455124 3.121737041701531 16.989134713971875
  endloop
endfacet
facet normal 0.13284230315760334 0.952869528959964 -0.2727500380777242
  outer loop
    vertex -1.1580011771760799 4.252574139064771 19.65582032580498
    vertex -1.4052929461717207 3.525189058801933 16.99877375845659
    vertex -9.95592196425706 5.493121981050328 19.709275200337093
  endloop
endfacet
facet normal 0.13284230315760334 0.952869528959964 -0.2727500380777242
  outer loop
    vertex -10.079589125453834 4.7510685531582775 17.052069858045712
    vertex -9.95592196425706 5.493121981050328 19.709275200337093
    vertex -1.4052929461717207 3.525189058801933 16.99877375845659
  endloop
endfacet
facet normal 0.13975959376500852 0.9516489414127391 -0.2735535564723165
  outer loop
    vertex -9.95592196425706 5.493121981050328 19.709275200337093
    vertex -10.079589125453834 4.7510685531582775 17.052069858045712
    vertex -19.021962376981545 6.845484508508355 19.769600243755978
  endloop
endfacet
facet normal 0.13975959376500852 0.9516489414127391 -0.2735535564723165
  outer loop
    vertex -19.019679452493566 6.0774554242053425 17.111457003236346
    vertex -19.021962376981545 6.845484508508355 19.769600243755978
    vertex -10.079589125453834 4.7510685531582775 17.052069858045712
  endloop
endfacet
facet normal 0.1497245740988514 0.9496007286451237 -0.27539246189314587
  outer loop
    vertex -19.019679452493566 6.0774554242053425 17.111457003236346
    vertex -21.678727136848597 6.498179559558399 17.12768926187371
    vertex -19.021962376981545 6.845484508508355 19.769600243755978
  endloop
endfacet
facet normal 0.1497245740988514 0.9496007286451237 -0.27539246189314587
  outer loop
    vertex -21.71781827589947 7.278450717562866 19.785855563757938
    vertex -19.021962376981545 6.845484508508355 19.769600243755978
    vertex -21.678727136848597 6.498179559558399 17.12768926187371
  endloop
endfacet
facet normal 0.11665587782473325 0.9497533678473347 -0.2904478377120177
  outer loop
    vertex 2.1450056496994336 4.050588788212372 20.321970169336605
    vertex 2.0696895161763287 3.8517352091983583 19.64785939630676
    vertex -1.094503975320817 4.448996136740547 20.329995877013758
  endloop
endfacet
facet normal 0.11665587782473325 0.9497533678473347 -0.2904478377120177
  outer loop
    vertex -1.1580011771760799 4.252574139064771 19.65582032580498
    vertex -1.094503975320817 4.448996136740547 20.329995877013758
    vertex 2.0696895161763287 3.8517352091983583 19.64785939630676
  endloop
endfacet
facet normal 0.13182962397659928 0.9494373366101012 -0.28493805307979836
  outer loop
    vertex -1.094503975320817 4.448996136740547 20.329995877013758
    vertex -1.1580011771760799 4.252574139064771 19.65582032580498
    vertex -9.924110951871146 5.688551978075933 20.384855261819116
  endloop
endfacet
facet normal 0.13182962397659928 0.9494373366101012 -0.28493805307979836
  outer loop
    vertex -9.95592196425706 5.493121981050328 19.709275200337093
    vertex -9.924110951871146 5.688551978075933 20.384855261819116
    vertex -1.1580011771760799 4.252574139064771 19.65582032580498
  endloop
endfacet
facet normal 0.1396843092982978 0.9500815483791165 -0.2789862813211399
  outer loop
    vertex -9.924110951871146 5.688551978075933 20.384855261819116
    vertex -9.95592196425706 5.493121981050328 19.709275200337093
    vertex -19.022468397905225 7.042701382898179 20.446829733998726
  endloop
endfacet
facet normal 0.1396843092982978 0.9500815483791165 -0.2789862813211399
  outer loop
    vertex -19.021962376981545 6.845484508508355 19.769600243755978
    vertex -19.022468397905225 7.042701382898179 20.446829733998726
    vertex -9.95592196425706 5.493121981050328 19.709275200337093
  endloop
endfacet
facet normal 0.1507853348630756 0.9491563704656087 -0.2763439291802562
  outer loop
    vertex -19.021962376981545 6.845484508508355 19.769600243755978
    vertex -21.71781827589947 7.278450717562866 19.785855563757938
    vertex -19.022468397905225 7.042701382898179 20.446829733998726
  endloop
endfacet
facet normal 0.1507853348630756 0.9491563704656087 -0.2763439291802562
  outer loop
    vertex -21.727783900720038 7.477367653926888 20.463510109478857
    vertex -19.022468397905225 7.042701382898179 20.446829733998726
    vertex -21.71781827589947 7.278450717562866 19.785855563757938
  endloop
endfacet
facet normal 0.11375713623221202 0.945360425170196 -0.3055371998272425
  outer loop
    vertex 2.517592308006086 5.07922970212696 23.625008873293492
    vertex 2.1450056496994336 4.050588788212372 20.321970169336605
    vertex -0.7793472032723286 5.472084060714212 23.631261894156864
  endloop
endfacet
facet normal 0.11375713623221202 0.945360425170196 -0.3055371998272425
  outer loop
    vertex -1.094503975320817 4.448996136740547 20.329995877013758
    vertex -0.7793472032723286 5.472084060714212 23.631261894156864
    vertex 2.1450056496994336 4.050588788212372 20.321970169336605
  endloop
endfacet
facet normal 0.13015738550741998 0.9438305406694553 -0.3037152704384099
  outer loop
    vertex -0.7793472032723286 5.472084060714212 23.631261894156864
    vertex -1.094503975320817 4.448996136740547 20.329995877013758
    vertex -9.762555164497902 6.724776279924065 23.687433282270305
  endloop
endfacet
facet normal 0.13015738550741998 0.9438305406694553 -0.3037152704384099
  outer loop
    vertex -9.924110951871146 5.688551978075933 20.384855261819116
    vertex -9.762555164497902 6.724776279924065 23.687433282270305
    vertex -1.094503975320817 4.448996136740547 20.329995877013758
  endloop
endfacet
facet normal 0.13846387684050096 0.9428286801707515 -0.30315315379817115
  outer loop
    vertex -9.762555164497902 6.724776279924065 23.687433282270305
    vertex -9.924110951871146 5.688551978075933 20.384855261819116
    vertex -19.017365921257937 8.106553273442202 23.75176592739812
  endloop
endfacet
facet normal 0.13846387684050096 0.9428286801707515 -0.30315315379817115
  outer loop
    vertex -19.022468397905225 7.042701382898179 20.446829733998726
    vertex -19.017365921257937 8.106553273442202 23.75176592739812
    vertex -9.924110951871146 5.688551978075933 20.384855261819116
  endloop
endfacet
facet normal 0.15043815558895898 0.9407208461933556 -0.30399449152945124
  outer loop
    vertex -19.022468397905225 7.042701382898179 20.446829733998726
    vertex -21.727783900720038 7.477367653926888 20.463510109478857
    vertex -19.017365921257937 8.106553273442202 23.75176592739812
  endloop
endfacet
facet normal 0.15043815558895898 0.9407208461933556 -0.30399449152945124
  outer loop
    vertex -21.768386268801585 8.555296896560941 23.768816258677315
    vertex -19.017365921257937 8.106553273442202 23.75176592739812
    vertex -21.727783900720038 7.477367653926888 20.463510109478857
  endloop
endfacet
facet normal 0.1092213952383709 0.9363417667738712 -0.33366867191417476
  outer loop
    vertex 2.893608002390899 6.206721120121922 26.895232541016338
    vertex 2.517592308006086 5.07922970212696 23.625008873293492
    vertex -0.460110745060766 6.593520529890151 26.899570883363182
  endloop
endfacet
facet normal 0.1092213952383709 0.9363417667738712 -0.33366867191417476
  outer loop
    vertex -0.7793472032723286 5.472084060714212 23.631261894156864
    vertex -0.460110745060766 6.593520529890151 26.899570883363182
    vertex 2.517592308006086 5.07922970212696 23.625008873293492
  endloop
endfacet
facet normal 0.12780438231580574 0.9346006024065358 -0.33194540792458005
  outer loop
    vertex -0.460110745060766 6.593520529890151 26.899570883363182
    vertex -0.7793472032723286 5.472084060714212 23.631261894156864
    vertex -9.59507027917695 7.858808793407333 26.956846490071477
  endloop
endfacet
facet normal 0.12780438231580574 0.9346006024065358 -0.33194540792458005
  outer loop
    vertex -9.762555164497902 6.724776279924065 23.687433282270305
    vertex -9.59507027917695 7.858808793407333 26.956846490071477
    vertex -0.7793472032723286 5.472084060714212 23.631261894156864
  endloop
endfacet
facet normal 0.13726813312891917 0.9334577032754142 -0.33138222013724616
  outer loop
    vertex -9.59507027917695 7.858808793407333 26.956846490071477
    vertex -9.762555164497902 6.724776279924065 23.687433282270305
    vertex -19.004378249596904 9.268069232356451 27.02335239826631
  endloop
endfacet
facet normal 0.13726813312891917 0.9334577032754142 -0.33138222013724616
  outer loop
    vertex -19.017365921257937 8.106553273442202 23.75176592739812
    vertex -19.004378249596904 9.268069232356451 27.02335239826631
    vertex -9.762555164497902 6.724776279924065 23.687433282270305
  endloop
endfacet
facet normal 0.15097492392480807 0.9310743095008157 -0.33212528138261
  outer loop
    vertex -19.017365921257937 8.106553273442202 23.75176592739812
    vertex -21.768386268801585 8.555296896560941 23.768816258677315
    vertex -19.004378249596904 9.268069232356451 27.02335239826631
  endloop
endfacet
facet normal 0.15097492392480807 0.9310743095008157 -0.33212528138261
  outer loop
    vertex -21.800498812454165 9.731019016492837 27.040707917273973
    vertex -19.004378249596904 9.268069232356451 27.02335239826631
    vertex -21.768386268801585 8.555296896560941 23.768816258677315
  endloop
endfacet
facet normal 0.10470243935381282 0.9264672612876493 -0.3615187587878718
  outer loop
    vertex 3.2727154682373603 7.432052379175589 30.129707521257913
    vertex 2.893608002390899 6.206721120121922 26.895232541016338
    vertex -0.13708079537724735 7.812298568390524 30.131993831609936
  endloop
endfacet
facet normal 0.10470243935381282 0.9264672612876493 -0.3615187587878718
  outer loop
    vertex -0.460110745060766 6.593520529890151 26.899570883363182
    vertex -0.13708079537724735 7.812298568390524 30.131993831609936
    vertex 2.893608002390899 6.206721120121922 26.895232541016338
  endloop
endfacet
facet normal 0.1253618720053494 0.9245343678801112 -0.3598897104056153
  outer loop
    vertex -0.13708079537724735 7.812298568390524 30.131993831609936
    vertex -0.460110745060766 6.593520529890151 26.899570883363182
    vertex -9.421806520694359 9.089633089619953 30.190174227632326
  endloop
endfacet
facet normal 0.1253618720053494 0.9245343678801112 -0.3598897104056153
  outer loop
    vertex -9.59507027917695 7.858808793407333 26.956846490071477
    vertex -9.421806520694359 9.089633089619953 30.190174227632326
    vertex -0.460110745060766 6.593520529890151 26.899570883363182
  endloop
endfacet
facet normal 0.1359422774759472 0.9232578593886409 -0.35932523188854587
  outer loop
    vertex -9.421806520694359 9.089633089619953 30.190174227632326
    vertex -9.59507027917695 7.858808793407333 26.956846490071477
    vertex -18.98351724078824 10.526213366990843 30.258676414420584
  endloop
endfacet
facet normal 0.1359422774759472 0.9232578593886409 -0.35932523188854587
  outer loop
    vertex -19.004378249596904 9.268069232356451 27.02335239826631
    vertex -18.98351724078824 10.526213366990843 30.258676414420584
    vertex -9.59507027917695 7.858808793407333 26.956846490071477
  endloop
endfacet
facet normal 0.15133838204268615 0.9206096087531538 -0.3599647793771872
  outer loop
    vertex -19.004378249596904 9.268069232356451 27.02335239826631
    vertex -21.800498812454165 9.731019016492837 27.040707917273973
    vertex -18.98351724078824 10.526213366990843 30.258676414420584
  endloop
endfacet
facet normal 0.15133838204268615 0.9206096087531538 -0.3599647793771872
  outer loop
    vertex -21.824092969650554 11.003488285061099 30.276274949595845
    vertex -18.98351724078824 10.526213366990843 30.258676414420584
    vertex -21.800498812454165 9.731019016492837 27.040707917273973
  endloop
endfacet
facet normal 0.10021161745945949 0.9157446536875457 -0.38906215566260915
  outer loop
    vertex 3.654574640068357 8.754124337684237 33.32553243795306
    vertex 3.2727154682373603 7.432052379175589 30.129707521257913
    vertex 0.1894530373823688 9.12732369698583 33.32563411448845
  endloop
endfacet
facet normal 0.10021161745945949 0.9157446536875457 -0.38906215566260915
  outer loop
    vertex -0.13708079537724735 7.812298568390524 30.131993831609936
    vertex 0.1894530373823688 9.12732369698583 33.32563411448845
    vertex 3.2727154682373603 7.432052379175589 30.129707521257913
  endloop
endfacet
facet normal 0.12283482700269878 0.9136395723630468 -0.38752333747464307
  outer loop
    vertex 0.1894530373823688 9.12732369698583 33.32563411448845
    vertex -0.13708079537724735 7.812298568390524 30.131993831609936
    vertex -9.242919261664309 10.416146402801798 33.384528214283065
  endloop
endfacet
facet normal 0.12283482700269878 0.9136395723630468 -0.38752333747464307
  outer loop
    vertex -9.421806520694359 9.089633089619953 30.190174227632326
    vertex -9.242919261664309 10.416146402801798 33.384528214283065
    vertex -0.13708079537724735 7.812298568390524 30.131993831609936
  endloop
endfacet
facet normal 0.13448804646496593 0.9122372679517883 -0.3869575329643997
  outer loop
    vertex -9.242919261664309 10.416146402801798 33.384528214283065
    vertex -9.421806520694359 9.089633089619953 30.190174227632326
    vertex -18.954801748324275 11.879863906766804 33.45485755488027
  endloop
endfacet
facet normal 0.13448804646496593 0.9122372679517883 -0.3869575329643997
  outer loop
    vertex -18.98351724078824 10.526213366990843 30.258676414420584
    vertex -18.954801748324275 11.879863906766804 33.45485755488027
    vertex -9.421806520694359 9.089633089619953 30.190174227632326
  endloop
endfacet
facet normal 0.15152560529921397 0.9093361426913659 -0.38748905859894306
  outer loop
    vertex -18.98351724078824 10.526213366990843 30.258676414420584
    vertex -21.824092969650554 11.003488285061099 30.276274949595845
    vertex -18.954801748324275 11.879863906766804 33.45485755488027
  endloop
endfacet
facet normal 0.15152560529921397 0.9093361426913659 -0.38748905859894306
  outer loop
    vertex -21.839147754916375 12.371572923283004 33.472639528371374
    vertex -18.954801748324275 11.879863906766804 33.45485755488027
    vertex -21.824092969650554 11.003488285061099 30.276274949595845
  endloop
endfacet
facet normal 0.09575995327985956 0.9041825182704822 -0.4162739542679654
  outer loop
    vertex 4.038842984081677 10.171751076081177 36.47984058475805
    vertex 3.654574640068357 8.754124337684237 33.32553243795306
    vertex 0.519198014137757 10.537415527058652 36.47762991086504
  endloop
endfacet
facet normal 0.09575995327985956 0.9041825182704822 -0.4162739542679654
  outer loop
    vertex 0.1894530373823688 9.12732369698583 33.32563411448845
    vertex 0.519198014137757 10.537415527058652 36.47762991086504
    vertex 3.654574640068357 8.754124337684237 33.32553243795306
  endloop
endfacet
facet normal 0.12022806918658896 0.9019246788471356 -0.4148217509559456
  outer loop
    vertex 0.519198014137757 10.537415527058652 36.47762991086504
    vertex 0.1894530373823688 9.12732369698583 33.32563411448845
    vertex -9.05856887031126 11.83716096247114 36.537055022445564
  endloop
endfacet
facet normal 0.12022806918658896 0.9019246788471356 -0.4148217509559456
  outer loop
    vertex -9.242919261664309 10.416146402801798 33.384528214283065
    vertex -9.05856887031126 11.83716096247114 36.537055022445564
    vertex 0.1894530373823688 9.12732369698583 33.32563411448845
  endloop
endfacet
facet normal 0.13290709058236141 0.9004047611657593 -0.41425471794894964
  outer loop
    vertex -9.05856887031126 11.83716096247114 36.537055022445564
    vertex -9.242919261664309 10.416146402801798 33.384528214283065
    vertex -18.91825760157416 13.327814279832962 36.609050250601136
  endloop
endfacet
facet normal 0.13290709058236141 0.9004047611657593 -0.41425471794894964
  outer loop
    vertex -18.954801748324275 11.879863906766804 33.45485755488027
    vertex -18.91825760157416 13.327814279832962 36.609050250601136
    vertex -9.242919261664309 10.416146402801798 33.384528214283065
  endloop
endfacet
facet normal 0.15153364889535365 0.8972639675552047 -0.41467448170770355
  outer loop
    vertex -18.954801748324275 11.879863906766804 33.45485755488027
    vertex -21.839147754916375 12.371572923283004 33.472639528371374
    vertex -18.91825760157416 13.327814279832962 36.609050250601136
  endloop
endfacet
facet normal 0.15153364889535365 0.8972639675552047 -0.41467448170770355
  outer loop
    vertex -21.8456497779956 13.834056108497805 36.62695869437222
    vertex -18.91825760157416 13.327814279832962 36.609050250601136
    vertex -21.839147754916375 12.371572923283004 33.472639528371374
  endloop
endfacet
facet normal 0.09135813667382818 0.8917903071463852 -0.4431294832701184
  outer loop
    vertex 4.425175805408323 11.683660960625499 39.58980249653206
    vertex 4.038842984081677 10.171751076081177 36.47984058475805
    vertex 0.8518585253407959 12.04130881338032 39.58515676618232
  endloop
endfacet
facet normal 0.09135813667382818 0.8917903071463852 -0.4431294832701184
  outer loop
    vertex 0.519198014137757 10.537415527058652 36.47762991086504
    vertex 0.8518585253407959 12.04130881338032 39.58515676618232
    vertex 4.038842984081677 10.171751076081177 36.47984058475805
  endloop
endfacet
facet normal 0.11754627338076243 0.889398923446517 -0.44176060098935005
  outer loop
    vertex 0.8518585253407959 12.04130881338032 39.58515676618232
    vertex 0.519198014137757 10.537415527058652 36.47762991086504
    vertex -8.868920570084311 13.351405047467294 39.6449386256067
  endloop
endfacet
facet normal 0.11754627338076243 0.889398923446517 -0.44176060098935005
  outer loop
    vertex -9.05856887031126 11.83716096247114 36.537055022445564
    vertex -8.868920570084311 13.351405047467294 39.6449386256067
    vertex 0.519198014137757 10.537415527058652 36.47762991086504
  endloop
endfacet
facet normal 0.1312009788104128 0.8877699030937692 -0.44119259096234764
  outer loop
    vertex -8.868920570084311 13.351405047467294 39.6449386256067
    vertex -9.05856887031126 11.83716096247114 36.537055022445564
    vertex -18.873917584299683 14.868774183922758 39.71844631781504
  endloop
endfacet
facet normal 0.1312009788104128 0.8877699030937692 -0.44119259096234764
  outer loop
    vertex -18.91825760157416 13.327814279832962 36.609050250601136
    vertex -18.873917584299683 14.868774183922758 39.71844631781504
    vertex -9.05856887031126 11.83716096247114 36.537055022445564
  endloop
endfacet
facet normal 0.15135955471997828 0.8844037900146625 -0.4414977026018034
  outer loop
    vertex -18.91825760157416 13.327814279832962 36.609050250601136
    vertex -21.8456497779956 13.834056108497805 36.62695869437222
    vertex -18.873917584299683 14.868774183922758 39.71844631781504
  endloop
endfacet
facet normal 0.15135955471997828 0.8844037900146625 -0.4414977026018034
  outer loop
    vertex -21.843593255758858 15.389637056661732 39.73642688504324
    vertex -18.873917584299683 14.868774183922758 39.71844631781504
    vertex -21.8456497779956 13.834056108497805 36.62695869437222
  endloop
endfacet
facet normal -0.17247262211277245 -0.9848824090347105 0.01611939811315084
  outer loop
    vertex -18.87391758432107 14.86877418377612 39.71844631781255
    vertex -21.843593255758858 15.389637056661721 39.73642688504324
    vertex -18.913721749586987 14.824322481516473 36.54488594581075
  endloop
endfacet
facet normal -0.17247262211277245 -0.9848824090347105 0.01611939811315084
  outer loop
    vertex -21.883859891568232 15.344228818326695 36.5628841499616
    vertex -18.913721749586987 14.824322481516473 36.54488594581075
    vertex -21.843593255758858 15.389637056661721 39.73642688504324
  endloop
endfacet
facet normal -0.1724284619193839 -0.9849292799259336 0.013518101371766992
  outer loop
    vertex -18.913721749586987 14.824322481516473 36.54488594581075
    vertex -21.883859891568232 15.344228818326695 36.5628841499616
    vertex -19.118422102839727 14.628553059183776 19.69291846525882
  endloop
endfacet
facet normal -0.1724284619193839 -0.9849292799259336 0.013518101371766992
  outer loop
    vertex -22.09007639123393 15.149351540335992 19.710922299567862
    vertex -19.118422102839727 14.628553059183776 19.69291846525882
    vertex -21.883859891568232 15.344228818326695 36.5628841499616
  endloop
endfacet
facet normal -0.17273975803316358 -0.9849188097639385 -0.00979357788710219
  outer loop
    vertex -19.118422102839727 14.628553059183776 19.69291846525882
    vertex -22.09007639123393 15.149351540335992 19.710922299567862
    vertex -19.282259929549653 14.85080783557553 0.2103582937629408
  endloop
endfacet
facet normal -0.17273975803316358 -0.9849188097639385 -0.00979357788710219
  outer loop
    vertex -22.251935614632785 15.371670421297694 0.22834301001838817
    vertex -19.282259929549653 14.85080783557553 0.2103582937629408
    vertex -22.09007639123393 15.149351540335992 19.710922299567862
  endloop
endfacet
facet normal -0.14965279193884257 -0.9886220008821041 0.015184901605688729
  outer loop
    vertex -8.868920570125189 13.351405047167903 39.64493862557886
    vertex -18.87391758432107 14.86877418377612 39.71844631781255
    vertex -8.907164423068496 13.310180566720996 36.471318749022004
  endloop
endfacet
facet normal -0.14965279193884257 -0.9886220008821041 0.015184901605688729
  outer loop
    vertex -18.913721749586987 14.824322481516473 36.54488594581075
    vertex -8.907164423068496 13.310180566720996 36.471318749022004
    vertex -18.87391758432107 14.86877418377612 39.71844631781255
  endloop
endfacet
facet normal -0.1496104369181215 -0.9886546470148428 0.013368100131489615
  outer loop
    vertex -8.907164423068496 13.310180566720996 36.471318749022004
    vertex -18.913721749586987 14.824322481516473 36.54488594581075
    vertex -9.106749505814483 13.111401171471748 19.61933227308719
  endloop
endfacet
facet normal -0.1496104369181215 -0.9886546470148428 0.013368100131489615
  outer loop
    vertex -19.118422102839727 14.628553059183776 19.69291846525882
    vertex -9.106749505814483 13.111401171471748 19.61933227308719
    vertex -18.913721749586987 14.824322481516473 36.54488594581075
  endloop
endfacet
facet normal -0.14995129353496747 -0.9886429518834229 -0.009986153334598456
  outer loop
    vertex -9.106749505814483 13.111401171471748 19.61933227308719
    vertex -19.118422102839727 14.628553059183776 19.69291846525882
    vertex -9.277262869316354 13.333439667817434 0.13683660328768568
  endloop
endfacet
facet normal -0.14995129353496747 -0.9886429518834229 -0.009986153334598456
  outer loop
    vertex -19.282259929549653 14.85080783557553 0.2103582937629408
    vertex -9.277262869316354 13.333439667817434 0.13683660328768568
    vertex -19.118422102839727 14.628553059183776 19.69291846525882
  endloop
endfacet
facet normal -0.13329974181152063 -0.9909775235796884 0.013954447063583963
  outer loop
    vertex 0.8518585253148071 12.0413088131688 39.5851567661465
    vertex -8.868920570125189 13.351405047167903 39.64493862557886
    vertex 0.8151390632432967 12.003237257556915 36.411478754946415
  endloop
endfacet
facet normal -0.13329974181152063 -0.9909775235796884 0.013954447063583963
  outer loop
    vertex -8.907164423068496 13.310180566720996 36.471318749022004
    vertex 0.8151390632432967 12.003237257556915 36.411478754946415
    vertex -8.868920570125189 13.351405047167903 39.64493862557886
  endloop
endfacet
facet normal -0.13325008088700138 -0.9909927422482391 0.013334194948435654
  outer loop
    vertex 0.8151390632432967 12.003237257556915 36.411478754946415
    vertex -8.907164423068496 13.310180566720996 36.471318749022004
    vertex 0.6205514874410674 11.80151718487304 19.559473720939685
  endloop
endfacet
facet normal -0.13325008088700138 -0.9909927422482391 0.013334194948435654
  outer loop
    vertex -9.106749505814483 13.111401171471748 19.61933227308719
    vertex 0.6205514874410674 11.80151718487304 19.559473720939685
    vertex -8.907164423068496 13.310180566720996 36.471318749022004
  endloop
endfacet
facet normal -0.13356472965368058 -0.9909886502384143 -0.01009742992968376
  outer loop
    vertex 0.6205514874410674 11.80151718487304 19.559473720939685
    vertex -9.106749505814483 13.111401171471748 19.61933227308719
    vertex 0.4435162711012506 12.023344380363632 0.07704106788078846
  endloop
endfacet
facet normal -0.13356472965368058 -0.9909886502384143 -0.01009742992968376
  outer loop
    vertex -9.277262869316354 13.333439667817434 0.13683660328768568
    vertex 0.4435162711012506 12.023344380363632 0.07704106788078846
    vertex -9.106749505814483 13.111401171471748 19.61933227308719
  endloop
endfacet
facet normal -0.10103409533615693 -0.9947739161704541 0.014729809452362807
  outer loop
    vertex 4.410084949267033 11.632971939729206 36.41346576474771
    vertex 4.425175805408368 11.683660960625478 39.58980249653206
    vertex 0.8151390632432967 12.003237257556915 36.411478754946415
  endloop
endfacet
facet normal -0.10103409533615693 -0.9947739161704541 0.014729809452362807
  outer loop
    vertex 0.8518585253148071 12.0413088131688 39.5851567661465
    vertex 0.8151390632432967 12.003237257556915 36.411478754946415
    vertex 4.425175805408368 11.683660960625478 39.58980249653206
  endloop
endfacet
facet normal -0.1109713320599942 -0.9937106259065874 0.014985173377996742
  outer loop
    vertex 4.329202758849496 11.35700422186937 19.547474490466605
    vertex 4.410084949267033 11.632971939729206 36.41346576474771
    vertex 0.6205514874410674 11.80151718487304 19.559473720939685
  endloop
endfacet
facet normal -0.1109713320599942 -0.9937106259065874 0.014985173377996742
  outer loop
    vertex 0.8151390632432967 12.003237257556915 36.411478754946415
    vertex 0.6205514874410674 11.80151718487304 19.559473720939685
    vertex 4.410084949267033 11.632971939729206 36.41346576474771
  endloop
endfacet
facet normal -0.1281479070790092 -0.9917195339373509 -0.008395231882038478
  outer loop
    vertex 4.279114034787756 11.49454846313057 0.04721610486143106
    vertex 4.329202758849496 11.35700422186937 19.547474490466605
    vertex 0.4435162711012506 12.023344380363632 0.07704106788078846
  endloop
endfacet
facet normal -0.1281479070790092 -0.9917195339373509 -0.008395231882038478
  outer loop
    vertex 0.6205514874410674 11.80151718487304 19.559473720939685
    vertex 0.4435162711012506 12.023344380363632 0.07704106788078846
    vertex 4.329202758849496 11.35700422186937 19.547474490466605
  endloop
endfacet
endsolid Lufteinlass
